# xmcd
#
# Track frame offsets:
# 150
# 13722
# 31675
# 46714
# 71432
# 89167
# 108177
# 121355
# 139542
# 160752
# 177334
# 195337
#
# Disc length: 2896 seconds
#
# Revision: 0
# Processed by: cddbd v1.5PL3 Copyright (c) Steve Scherf et al.
# Submitted via: Audion 3.0.2 (http://www.panic.com/audion/)
#
DISCID=900b4e0c
DTITLE=The Rebelaires - Confederate Man
DYEAR=1900
DGENRE=
TTITLE0=A Free Man
TTITLE1=Another Freedom Falls
TTITLE2=Confederate Man
TTITLE3=A Bead On Lee
TTITLE4=Our Rights We Will Defend
TTITLE5=Confederate Rose
TTITLE6=Hey Pretty (From Mississippi)
TTITLE7=Rebel Yell
TTITLE8=Take Me Home (To The Southland)
TTITLE9=Sweet Southern Lady
TTITLE10=Star Of Tennessee
TTITLE11=Dixieland
EXTD=
EXTT0=
EXTT1=
EXTT2=
EXTT3=
EXTT4=
EXTT5=
EXTT6=
EXTT7=
EXTT8=
EXTT9=
EXTT10=
EXTT11=
PLAYORDER=
